<svg width="22" height="22" viewBox="0 0 22 22" fill="none" xmlns="http://www.w3.org/2000/svg">
<path d="M20.3923 3.04415L18.0078 0.659641C17.1298 -0.21988 15.697 -0.21988 14.819 0.659641L2.02004 13.4586C1.7299 13.7487 1.5239 14.1111 1.42467 14.5065L0.0219506 20.1159C-0.0411946 20.373 0.0340013 20.6436 0.220406 20.83C0.363258 20.9713 0.555654 21.0495 0.75263 21.0495C0.812745 21.0495 0.87441 21.0435 0.936075 21.03L6.54549 19.6273C6.94093 19.5281 7.30471 19.3221 7.59338 19.0334L20.3923 6.23446C20.8178 5.80745 21.0523 5.24069 21.0523 4.63927C21.0523 4.03643 20.8178 3.4696 20.3923 3.04415Z" fill="#AF447F"/>
<path d="M7.25636 18.2229L2.83021 13.7968C2.53704 13.5036 2.06042 13.5036 1.76724 13.7968C1.47407 14.09 1.47407 14.5666 1.76724 14.8597L6.1934 19.2859C6.34076 19.4317 6.53315 19.5054 6.72562 19.5054C6.91809 19.5054 7.11048 19.4318 7.25636 19.2859C7.54954 18.9927 7.54954 18.5161 7.25636 18.2229Z" fill="#FCF1F7"/>
</svg>
