<svg width="37" height="37" viewBox="0 0 37 37" fill="none" xmlns="http://www.w3.org/2000/svg">
<circle cx="18.5" cy="18.5" r="18.5" fill="white"/>
<path d="M18.5 15.3638C16.7698 15.3638 15.3637 16.7699 15.3637 18.5001C15.3637 20.2304 16.7698 21.6365 18.5 21.6365C20.2303 21.6365 21.6364 20.2304 21.6364 18.5001C21.6364 16.7699 20.2302 15.3638 18.5 15.3638Z" fill="#212E44"/>
<path d="M18.5 10.6589C13.2727 10.6589 8.80865 13.9103 7 18.4999C8.80865 23.0894 13.2727 26.3408 18.5 26.3408C23.7325 26.3408 28.1914 23.0894 30 18.4999C28.1914 13.9103 23.7325 10.6589 18.5 10.6589ZM18.5 23.7271C15.6146 23.7271 13.2727 21.3853 13.2727 18.4998C13.2727 15.6143 15.6146 13.2726 18.5 13.2726C21.3855 13.2726 23.7273 15.6144 23.7273 18.4999C23.7273 21.3853 21.3855 23.7271 18.5 23.7271Z" fill="#212E44"/>
</svg>
