<svg width="46" height="38" viewBox="0 0 46 38" fill="none" xmlns="http://www.w3.org/2000/svg">
<path d="M18.5781 1.99992L1 12.1887L11.149 29.8357L28.7271 19.6469L18.5781 1.99992Z" stroke="#81D8BF" stroke-width="2" stroke-miterlimit="10" stroke-linejoin="round"/>
<path d="M24.6465 12.4795L26.5845 9.04907L44.1795 19.2379L34.0305 36.9019L21.7905 29.7851" stroke="#81D8BF" stroke-width="2" stroke-miterlimit="10" stroke-linecap="round" stroke-linejoin="round"/>
<path d="M17.0986 11.2508C18.169 11.2508 19.0366 10.3797 19.0366 9.30522C19.0366 8.23069 18.169 7.35962 17.0986 7.35962C16.0283 7.35962 15.1606 8.23069 15.1606 9.30522C15.1606 10.3797 16.0283 11.2508 17.0986 11.2508Z" fill="#81D8BF"/>
<path d="M15.0078 17.8556C16.0782 17.8556 16.9458 16.9845 16.9458 15.91C16.9458 14.8354 16.0782 13.9644 15.0078 13.9644C13.9375 13.9644 13.0698 14.8354 13.0698 15.91C13.0698 16.9845 13.9375 17.8556 15.0078 17.8556Z" fill="#81D8BF"/>
<path d="M12.9678 24.5116C14.0381 24.5116 14.9058 23.6405 14.9058 22.566C14.9058 21.4914 14.0381 20.6204 12.9678 20.6204C11.8975 20.6204 11.0298 21.4914 11.0298 22.566C11.0298 23.6405 11.8975 24.5116 12.9678 24.5116Z" fill="#81D8BF"/>
<path d="M8.42872 15.7052C9.49905 15.7052 10.3667 14.8341 10.3667 13.7596C10.3667 12.685 9.49905 11.814 8.42872 11.814C7.3584 11.814 6.49072 12.685 6.49072 13.7596C6.49072 14.8341 7.3584 15.7052 8.42872 15.7052Z" fill="#81D8BF"/>
<path d="M14.9566 17.8043C16.0269 17.8043 16.8946 16.9332 16.8946 15.8587C16.8946 14.7842 16.0269 13.9131 14.9566 13.9131C13.8862 13.9131 13.0186 14.7842 13.0186 15.8587C13.0186 16.9332 13.8862 17.8043 14.9566 17.8043Z" fill="#81D8BF"/>
<path d="M21.5869 19.8011C22.6573 19.8011 23.5249 18.93 23.5249 17.8555C23.5249 16.781 22.6573 15.9099 21.5869 15.9099C20.5166 15.9099 19.6489 16.781 19.6489 17.8555C19.6489 18.93 20.5166 19.8011 21.5869 19.8011Z" fill="#81D8BF"/>
<path d="M28.9307 17.753C30.001 17.753 30.8687 16.8819 30.8687 15.8074C30.8687 14.7329 30.001 13.8618 28.9307 13.8618C27.8603 13.8618 26.9927 14.7329 26.9927 15.8074C26.9927 16.8819 27.8603 17.753 28.9307 17.753Z" fill="#81D8BF"/>
<path d="M30.3076 24.5116C31.378 24.5116 32.2456 23.6405 32.2456 22.566C32.2456 21.4914 31.378 20.6204 30.3076 20.6204C29.2373 20.6204 28.3696 21.4914 28.3696 22.566C28.3696 23.6405 29.2373 24.5116 30.3076 24.5116Z" fill="#81D8BF"/>
<path d="M31.7866 31.3211C32.857 31.3211 33.7246 30.4501 33.7246 29.3755C33.7246 28.301 32.857 27.4299 31.7866 27.4299C30.7163 27.4299 29.8486 28.301 29.8486 29.3755C29.8486 30.4501 30.7163 31.3211 31.7866 31.3211Z" fill="#81D8BF"/>
</svg>
