<svg width="39" height="39" viewBox="0 0 39 39" fill="none" xmlns="http://www.w3.org/2000/svg">
<path d="M38.5234 36.2257L27.4329 25.1352C29.5812 22.4816 30.8746 19.1098 30.8746 15.4373C30.8746 6.92569 23.9489 0 15.4373 0C6.92562 0 0 6.92562 0 15.4373C0 23.9489 6.9257 30.8746 15.4373 30.8746C19.1098 30.8746 22.4816 29.5812 25.1352 27.4329L36.2257 38.5234C36.5426 38.8403 36.9585 38.9995 37.3746 38.9995C37.7906 38.9995 38.2066 38.8403 38.5235 38.5234C39.1588 37.8881 39.1588 36.861 38.5234 36.2257ZM15.4373 27.6246C8.7164 27.6246 3.24999 22.1582 3.24999 15.4373C3.24999 8.71632 8.7164 3.24991 15.4373 3.24991C22.1583 3.24991 27.6247 8.71632 27.6247 15.4373C27.6247 22.1582 22.1582 27.6246 15.4373 27.6246Z" fill="white"/>
</svg>
