<svg width="26" height="26" viewBox="0 0 26 26" fill="none" xmlns="http://www.w3.org/2000/svg">
<rect x="5.27148" y="3.95361" width="15.1554" height="21.0858" fill="#618EEC"/>
<path d="M8.60037 11.575C8.30994 11.575 8.07422 11.8183 8.07422 12.1182V25.1552C8.07422 25.455 8.30994 25.6984 8.60037 25.6984C8.89079 25.6984 9.12652 25.455 9.12652 25.1552V12.1182C9.12652 11.8183 8.89079 11.575 8.60037 11.575Z" fill="#F0F5FF"/>
<path d="M13.0457 11.8606C12.7553 11.8606 12.5195 12.104 12.5195 12.4038V25.4408C12.5195 25.7406 12.7553 25.984 13.0457 25.984C13.3361 25.984 13.5718 25.7406 13.5718 25.4408V12.4038C13.5718 12.1039 13.3361 11.8606 13.0457 11.8606Z" fill="#F0F5FF"/>
<path d="M17.6585 11.575C17.368 11.575 17.1323 11.8183 17.1323 12.1182V25.1552C17.1323 25.455 17.368 25.6984 17.6585 25.6984C17.9489 25.6984 18.1846 25.455 18.1846 25.1552V12.1182C18.1846 11.8183 17.9489 11.575 17.6585 11.575Z" fill="#F0F5FF"/>
<path d="M0.0493164 6.31359C0.0493164 3.99231 1.93708 2.10454 4.25836 2.10449L4.8585 2.91017H20.8891L20.0259 4.8585L17.609 6.31359H8.46741C8.46741 8.63487 6.57965 10.5226 4.25836 10.5226C1.93708 10.5226 0.0493164 8.63487 0.0493164 6.31359Z" fill="#618EEC"/>
<path d="M7.892 5.80404C7.60157 5.80404 7.36585 6.03976 7.36585 6.33019C7.36585 8.07062 5.94948 9.48699 4.20905 9.48699C2.46862 9.48699 1.05225 8.07062 1.05225 6.33019C1.05225 4.58976 2.46862 3.17339 4.20905 3.17339C4.49947 3.17339 4.7352 2.93767 4.7352 2.64724C4.7352 2.35682 4.49947 2.12109 4.20905 2.12109C1.88777 2.12114 0 4.00891 0 6.33019C0 8.65147 1.88777 10.5392 4.20905 10.5392C6.53033 10.5392 8.4181 8.65147 8.4181 6.33019C8.41814 6.03976 8.18242 5.80404 7.892 5.80404Z" fill="#F0F5FF"/>
<path d="M21.3333 0.715144L4.04492 0.394531V2.7128L20.988 2.24422L21.3333 0.715144Z" fill="#618EEC"/>
<path d="M20.5687 2.63064C20.5687 2.34022 20.8044 2.10449 21.0948 2.10449C23.4161 2.10449 25.3039 3.99226 25.3039 6.31354C25.3039 8.63482 23.4161 10.5226 21.0948 10.5226C18.7735 10.5226 16.8857 8.63482 16.8857 6.31354C16.8857 6.02311 17.1215 5.78739 17.4119 5.78739L20.5687 2.63064Z" fill="#618EEC"/>
<path d="M22.0367 0.202035C21.9367 0.0747273 21.7831 0 21.621 0H3.73251C3.57048 0 3.4158 0.0747273 3.31685 0.202035C3.21795 0.329343 3.18323 0.496653 3.22215 0.653457L3.7483 2.75801C3.80615 2.99264 4.01766 3.1568 4.25861 3.1568H21.0949C21.3358 3.1568 21.5473 2.99264 21.6063 2.75801L22.1324 0.653457C22.1714 0.495617 22.1366 0.329343 22.0367 0.202035ZM20.6845 2.10455H4.67008L4.40703 1.0523H20.9476L20.6845 2.10455Z" fill="#618EEC"/>
<path d="M2.60359 6.31353C2.60359 5.40127 3.3461 4.65876 4.25836 4.65876C5.17062 4.65876 5.91313 5.40127 5.91313 6.31353C5.91313 7.22579 5.17062 7.9683 4.25836 7.9683C3.3461 7.9683 2.60359 7.22579 2.60359 6.31353Z" fill="#618EEC" stroke="#F0F5FF" stroke-width="0.899557"/>
<path d="M21.0948 4.65876C20.1825 4.65876 19.44 5.40127 19.44 6.31353C19.44 7.22579 20.1825 7.9683 21.0948 7.9683C22.007 7.9683 22.7495 7.2258 22.7496 6.31355L21.0948 4.65876ZM21.0948 4.65876C22.007 4.65876 22.7495 5.40126 22.7496 6.31353L21.0948 4.65876Z" fill="#618EEC" stroke="#F0F5FF" stroke-width="0.899557"/>
<path d="M15.307 6.31372H10.0457C9.75526 6.31372 9.51953 6.54945 9.51953 6.83987C9.51953 7.1303 9.75526 7.36602 10.0457 7.36602H15.307C15.5975 7.36602 15.8332 7.1303 15.8332 6.83987C15.8332 6.54945 15.5974 6.31372 15.307 6.31372Z" fill="#F0F5FF"/>
<path d="M16.3593 8.41797H8.99343C8.70301 8.41797 8.46729 8.65369 8.46729 8.94412C8.46729 9.23454 8.70301 9.47022 8.99343 9.47022H16.3593C16.6497 9.47022 16.8854 9.23449 16.8854 8.94407C16.8854 8.65364 16.6498 8.41797 16.3593 8.41797Z" fill="#F0F5FF"/>
<path d="M21.1276 2.12109C20.8371 2.12109 20.6014 2.35682 20.6014 2.64724C20.6014 2.93767 20.8371 3.17334 21.1276 3.17334C22.868 3.17334 24.2844 4.58971 24.2844 6.33014C24.2844 8.07057 22.868 9.48694 21.1276 9.48694C19.3871 9.48694 17.9708 8.07057 17.9708 6.33014C17.9708 6.03972 17.735 5.80399 17.4446 5.80399C17.1542 5.80399 16.9185 6.03972 16.9185 6.33014C16.9185 8.65142 18.8062 10.5392 21.1275 10.5392C23.4488 10.5392 25.3366 8.65142 25.3366 6.33014C25.3366 4.00886 23.4488 2.12109 21.1276 2.12109Z" fill="#F0F5FF"/>
<rect x="2.63574" y="1.97681" width="21.7447" height="1.31786" fill="#F0F5FF"/>
</svg>
