<svg width="23" height="23" viewBox="0 0 23 23" fill="none" xmlns="http://www.w3.org/2000/svg">
<path d="M21.4969 20.5632V5.37388C21.4969 4.98692 21.1829 4.67288 20.7959 4.67288H14.02V20.5618H13.0849V0.701001C13.0849 0.314049 12.7708 0 12.3839 0H2.56987C2.18292 0 1.86887 0.314049 1.86887 0.701001V20.5632H0.935136C0.417797 20.5632 0 20.981 0 21.4969C0 22.0128 0.417797 22.432 0.935136 22.432H21.4983C22.0142 22.432 22.432 22.0142 22.432 21.4969C22.432 20.9796 22.0142 20.5632 21.4969 20.5632V20.5632ZM18.6929 8.17788C18.6929 7.79093 19.007 7.47688 19.3939 7.47688C19.7809 7.47688 20.0949 7.79093 20.0949 8.17788V9.57989C20.0949 9.96684 19.7809 10.2809 19.3939 10.2809C19.007 10.2809 18.6929 9.96684 18.6929 9.57989V8.17788ZM18.6929 12.8522C18.6929 12.4652 19.007 12.1512 19.3939 12.1512C19.7809 12.1512 20.0949 12.4652 20.0949 12.8522V14.2542C20.0949 14.6411 19.7809 14.9552 19.3939 14.9552C19.007 14.9552 18.6929 14.6411 18.6929 14.2542V12.8522ZM18.6929 17.525C18.6929 17.1381 19.007 16.824 19.3939 16.824C19.7809 16.824 20.0949 17.1381 20.0949 17.525V19.1612C20.0949 19.5481 19.7809 19.8622 19.3939 19.8622C19.007 19.8622 18.6929 19.5481 18.6929 19.1612V17.525ZM15.422 8.17788C15.422 7.79093 15.7361 7.47688 16.123 7.47688C16.51 7.47688 16.824 7.79093 16.824 8.17788V9.57989C16.824 9.96684 16.51 10.2809 16.123 10.2809C15.7361 10.2809 15.422 9.96684 15.422 9.57989V8.17788ZM15.422 12.8522C15.422 12.4652 15.7361 12.1512 16.123 12.1512C16.51 12.1512 16.824 12.4652 16.824 12.8522V14.2542C16.824 14.6411 16.51 14.9552 16.123 14.9552C15.7361 14.9552 15.422 14.6411 15.422 14.2542V12.8522ZM15.422 17.525C15.422 17.1381 15.7361 16.824 16.123 16.824C16.51 16.824 16.824 17.1381 16.824 17.525V19.1612C16.824 19.5481 16.51 19.8622 16.123 19.8622C15.7361 19.8622 15.422 19.5481 15.422 19.1612V17.525ZM8.87888 3.50501C8.87888 3.11805 9.19293 2.80401 9.57989 2.80401C9.96684 2.80401 10.2809 3.11805 10.2809 3.50501V4.90701C10.2809 5.29396 9.96684 5.60801 9.57989 5.60801C9.19293 5.60801 8.87888 5.29396 8.87888 4.90701V3.50501ZM8.87888 8.17788C8.87888 7.79093 9.19293 7.47688 9.57989 7.47688C9.96684 7.47688 10.2809 7.79093 10.2809 8.17788V9.57989C10.2809 9.96684 9.96684 10.2809 9.57989 10.2809C9.19293 10.2809 8.87888 9.96684 8.87888 9.57989V8.17788ZM8.87888 12.8522C8.87888 12.4652 9.19293 12.1512 9.57989 12.1512C9.96684 12.1512 10.2809 12.4652 10.2809 12.8522V14.2542C10.2809 14.6411 9.96684 14.9552 9.57989 14.9552C9.19293 14.9552 8.87888 14.6411 8.87888 14.2542V12.8522ZM8.87888 17.525C8.87888 17.1381 9.19293 16.824 9.57989 16.824C9.96684 16.824 10.2809 17.1381 10.2809 17.525V18.927C10.2809 19.314 9.96684 19.628 9.57989 19.628C9.19293 19.628 8.87888 19.314 8.87888 18.927V17.525ZM4.67288 3.50501C4.67288 3.11805 4.98692 2.80401 5.37388 2.80401C5.76083 2.80401 6.07488 3.11805 6.07488 3.50501V4.90701C6.07488 5.29396 5.76083 5.60801 5.37388 5.60801C4.98692 5.60801 4.67288 5.29396 4.67288 4.90701V3.50501ZM4.67288 8.17788C4.67288 7.79093 4.98692 7.47688 5.37388 7.47688C5.76083 7.47688 6.07488 7.79093 6.07488 8.17788V9.57989C6.07488 9.96684 5.76083 10.2809 5.37388 10.2809C4.98692 10.2809 4.67288 9.96684 4.67288 9.57989V8.17788ZM4.67288 12.8522C4.67288 12.4652 4.98692 12.1512 5.37388 12.1512C5.76083 12.1512 6.07488 12.4652 6.07488 12.8522V14.2542C6.07488 14.6411 5.76083 14.9552 5.37388 14.9552C4.98692 14.9552 4.67288 14.6411 4.67288 14.2542V12.8522ZM4.67288 17.525C4.67288 17.1381 4.98692 16.824 5.37388 16.824C5.76083 16.824 6.07488 17.1381 6.07488 17.525V18.927C6.07488 19.314 5.76083 19.628 5.37388 19.628C4.98692 19.628 4.67288 19.314 4.67288 18.927V17.525Z" fill="#F58975"/>
</svg>
